<svg width="24" height="24" viewBox="0 0 24 24" fill="none" xmlns="http://www.w3.org/2000/svg">
<path d="M5.73084 13.3403C5.73084 13.1183 5.73325 12.5247 5.72777 12.4516C5.73255 11.5683 5.09037 10.9453 4.68467 10.9939C4.40394 11.0182 4.16866 11.1327 4.04234 11.462C3.92525 11.7689 4.02993 12.1771 4.41921 12.2729C4.83545 12.3758 5.07851 12.4614 5.25442 12.5821C5.46995 12.7299 5.6459 13.0124 5.65057 13.3407" fill="#0060AF"/>
<path d="M5.89698 14.6829C5.16304 14.6829 4.40875 14.5022 3.65546 14.1446L3.63698 14.1355L3.62814 14.1167C3.29009 13.4032 3.11133 12.6227 3.11133 11.8591C3.11133 11.0967 3.28276 10.3496 3.62105 9.63703L3.63035 9.61809L3.64918 9.60865C4.34601 9.27854 5.09563 9.11133 5.8779 9.11133C6.60662 9.11133 7.38487 9.29748 8.12816 9.65059L8.14725 9.65908L8.15604 9.67836C8.50056 10.4051 8.68224 11.1853 8.68224 11.9363C8.68224 12.6843 8.50779 13.432 8.16287 14.1582L8.15378 14.1773L8.13459 14.1862C7.44841 14.511 6.67458 14.6829 5.89698 14.6829ZM3.72518 14.0468C4.45697 14.391 5.18679 14.5649 5.89698 14.5649C6.65002 14.5649 7.39893 14.4002 8.06557 14.0882C8.39673 13.3845 8.5646 12.6602 8.5646 11.9363C8.5646 11.2094 8.3894 10.4534 8.05799 9.74808C7.33665 9.40899 6.58331 9.22917 5.8779 9.22917C5.12054 9.22917 4.39463 9.3898 3.71885 9.70669C3.39447 10.3974 3.22937 11.1211 3.22937 11.8591C3.22937 12.5985 3.40095 13.3548 3.72518 14.0468Z" fill="#0060AF"/>
<path d="M5.55683 13.3405C5.55818 13.0559 5.39931 12.8042 5.19166 12.6689C5.00747 12.5494 4.7602 12.4708 4.36128 12.3696C4.23796 12.3381 4.10898 12.268 4.06904 12.1787C3.96341 12.2851 3.94422 12.5244 3.96281 12.6643C3.98441 12.8261 4.17352 13.0928 4.45827 13.1033C4.63216 13.1103 4.85201 13.0659 4.95744 13.0435C5.13932 13.0042 5.42709 13.1181 5.4729 13.3402" fill="#0060AF"/>
<path d="M5.87784 9.61719C5.39504 9.61719 4.97799 9.93559 4.9795 10.4866C4.981 10.9499 5.3536 11.1979 5.48656 11.3751C5.68748 11.642 5.79622 11.958 5.80752 12.4415C5.81631 12.8263 5.81586 13.2063 5.81782 13.341H5.92441C5.92255 13.2001 5.91773 12.7967 5.92325 12.4296C5.93048 11.946 6.04315 11.642 6.24416 11.3751C6.37827 11.1979 6.75057 10.9499 6.75138 10.4866C6.75318 9.93559 6.33638 9.61719 5.85398 9.61719" fill="#0060AF"/>
<path d="M6.00059 13.3403C6.00059 13.1183 5.99807 12.5247 6.00345 12.4516C5.99873 11.5683 6.64051 10.9453 7.04656 10.9939C7.32729 11.0182 7.56231 11.1327 7.68899 11.462C7.80597 11.7689 7.70069 12.1771 7.31187 12.2729C6.89542 12.3758 6.65266 12.4614 6.47631 12.5821C6.26102 12.7299 6.09738 13.0124 6.09236 13.3407" fill="#0060AF"/>
<path d="M6.17433 13.3405C6.17282 13.0559 6.33164 12.8042 6.53869 12.6689C6.72363 12.5494 6.97121 12.4708 7.36978 12.3696C7.49334 12.3381 7.62218 12.268 7.66141 12.1787C7.76754 12.2851 7.78668 12.5244 7.7681 12.6643C7.74605 12.8261 7.55743 13.0928 7.27319 13.1033C7.09935 13.1103 6.87834 13.0659 6.77336 13.0435C6.59218 13.0042 6.30362 13.1181 6.25761 13.3402" fill="#0060AF"/>
<path d="M6.32301 14.2597L6.26123 13.8089L6.41036 13.7863C6.44668 13.7813 6.49088 13.7876 6.50856 13.8104C6.5281 13.8341 6.53407 13.8538 6.53784 13.8849C6.54347 13.9234 6.53232 13.968 6.48892 13.9902V13.9915C6.53739 13.9915 6.56667 14.0263 6.57516 14.0851C6.57642 14.0975 6.58008 14.1275 6.57642 14.1525C6.56657 14.212 6.53106 14.2312 6.47114 14.2396L6.32301 14.2597ZM6.419 14.1789C6.43668 14.1764 6.45461 14.1755 6.46863 14.1665C6.49007 14.1525 6.48812 14.1225 6.48515 14.1003C6.47767 14.0514 6.46491 14.0328 6.41302 14.0405L6.38042 14.0455L6.40107 14.1815L6.419 14.1789ZM6.38776 13.9706C6.4075 13.9674 6.43427 13.9651 6.44542 13.9463C6.45125 13.9338 6.45873 13.9239 6.45381 13.8961C6.44773 13.8631 6.43678 13.8426 6.39489 13.8505L6.35586 13.8568L6.37123 13.9724" fill="#0060AF"/>
<path d="M6.96912 13.9885C6.97027 13.9969 6.97163 14.0063 6.97213 14.0146C6.98419 14.0969 6.96912 14.1649 6.8767 14.1837C6.74007 14.21 6.7139 14.1251 6.68984 14.0063L6.67704 13.942C6.6582 13.8282 6.65011 13.7422 6.78332 13.7156C6.85841 13.7019 6.90804 13.7318 6.92868 13.8065C6.9319 13.8177 6.93592 13.8287 6.93742 13.8399L6.8557 13.8568C6.84626 13.8287 6.83375 13.7786 6.79698 13.7828C6.73098 13.7907 6.75278 13.8728 6.75956 13.9072L6.78412 14.0306C6.79151 14.0679 6.80617 14.1275 6.86328 14.116C6.90965 14.1067 6.88945 14.0345 6.88534 14.0049" fill="#0060AF"/>
<path d="M7.10054 14.125L7.07227 13.6585L7.18207 13.625L7.41227 14.0308L7.32582 14.0566L7.27127 13.9535L7.17529 13.9823L7.18769 14.0996L7.10054 14.125ZM7.16725 13.907L7.23661 13.8869L7.1445 13.6981" fill="#0060AF"/>
<path d="M4.38816 13.7721C4.42252 13.6621 4.45331 13.5811 4.58441 13.617C4.65458 13.6366 4.69808 13.6676 4.69602 13.7491C4.69568 13.7672 4.68969 13.7857 4.68577 13.8036L4.60415 13.7811C4.61485 13.7361 4.62163 13.7004 4.56618 13.6833C4.50208 13.6657 4.48646 13.7434 4.47762 13.777L4.44442 13.8993C4.43387 13.9356 4.42122 13.9956 4.47762 14.0111C4.52424 14.0236 4.55251 13.9779 4.56939 13.9111L4.51228 13.896L4.53202 13.8252L4.66628 13.8684L4.60254 14.1041L4.54076 14.0873L4.55467 14.0375H4.55291C4.52449 14.0783 4.48978 14.0825 4.45939 14.0767C4.32513 14.0404 4.33914 13.9526 4.37119 13.8354" fill="#0060AF"/>
<path d="M4.88829 13.9715L4.84785 14.1633L4.75684 14.1436L4.85383 13.6958L5.00899 13.7309C5.0998 13.7505 5.12722 13.7909 5.11437 13.8741C5.10703 13.9219 5.08348 13.9734 5.02596 13.9692L5.02536 13.9684C5.07398 13.9854 5.0781 14.01 5.06961 14.0524C5.06595 14.0704 5.04068 14.1798 5.05811 14.1975L5.05871 14.2109L4.96453 14.1864C4.96061 14.156 4.97393 14.1015 4.9792 14.0713C4.98452 14.0446 4.99301 14.0069 4.96589 13.9927C4.94464 13.9814 4.93676 13.982 4.91275 13.9765L4.88829 13.9715ZM4.90381 13.9021L4.96509 13.9187C5.00231 13.924 5.023 13.9048 5.03033 13.8598C5.03696 13.8186 5.02837 13.8024 4.99497 13.7945L4.92927 13.7811" fill="#0060AF"/>
<path d="M5.47205 13.7956L5.56206 13.8061L5.52328 14.1209C5.50445 14.2207 5.46587 14.2643 5.35607 14.2506C5.24436 14.2365 5.21784 14.1857 5.22462 14.085L5.26365 13.7705L5.35436 13.7809L5.31543 14.0884C5.31131 14.1218 5.30358 14.1713 5.363 14.1773C5.41569 14.1813 5.42765 14.1464 5.43357 14.103" fill="#0060AF"/>
<path d="M5.66113 14.268L5.68821 13.8179L5.86115 13.8254C5.94287 13.8294 5.96427 13.8961 5.9617 13.9598C5.95934 13.9985 5.94724 14.0418 5.91348 14.0653C5.88581 14.0852 5.85025 14.0899 5.81724 14.0883L5.76089 14.0852L5.74964 14.2738L5.66113 14.268ZM5.76345 14.0165L5.80926 14.0191C5.84648 14.0204 5.87114 14.0057 5.87436 13.9511C5.87616 13.8986 5.85632 13.8897 5.8081 13.8876L5.77179 13.8863" fill="#0060AF"/>
<path d="M17.8585 10.0523L17.1712 11.2999C16.9117 11.0892 16.5949 10.9341 16.1907 10.9341C15.2342 10.9341 14.8457 11.6472 14.8457 12.1494C14.8457 12.5222 15.0898 13.0722 15.9409 13.0722C16.2981 13.0722 16.806 12.8237 16.9522 12.7107L16.2724 14.158C15.9483 14.2226 15.8419 14.2627 15.5676 14.2712C14.0443 14.3167 13.4287 13.3809 13.4292 12.4247C13.4302 11.1606 14.5541 9.62332 16.4172 9.62332C16.5313 9.62332 16.671 9.6628 16.7904 9.70655L16.911 9.55225" fill="#0060AF"/>
<path d="M20.6946 9.59131L20.8892 14.1256H19.4407L19.4399 13.3479H18.4521L18.1271 14.1256H16.5562L18.1985 10.8877L17.8282 10.8853L18.5318 9.59131H20.6946ZM19.4305 10.9784L18.872 12.2973H19.4473" fill="#0060AF"/>
<path d="M12.5145 9.59163C13.2318 9.59565 13.6371 9.98502 13.6371 10.5475C13.6371 11.066 13.2096 11.525 12.7403 11.7623C13.2235 11.9399 13.2653 12.3759 13.2653 12.6844C13.2653 13.4296 12.5175 14.1259 11.5455 14.1259H9.42578L10.2527 10.9331L9.913 10.9312L10.6073 9.59163C10.6073 9.59163 11.9312 9.58761 12.5145 9.59163ZM11.8107 11.43C11.9591 11.43 12.2211 11.3924 12.2866 11.1053C12.3584 10.7936 12.1125 10.7852 11.9945 10.7852L11.5731 10.7833L11.4262 11.43L11.8107 11.43ZM11.2149 12.2313L11.0209 12.9765H11.5171C11.7123 12.9765 11.9784 12.8796 12.0436 12.6371C12.108 12.3939 11.922 12.2313 11.7274 12.2313" fill="#0060AF"/>
</svg>
