<svg width="24" height="24" viewBox="0 0 24 24" fill="none" xmlns="http://www.w3.org/2000/svg">
<path d="M18.2398 3H5.7445C4.22939 3 3 4.25907 3 5.81423V18.1854C3 19.7263 4.20508 20.9775 5.70338 20.9996L18.2308 21C19.7459 21 20.9782 19.7406 20.9782 18.1854L20.9843 5.81423C20.9843 4.25907 19.7545 3 18.2398 3ZM7.22957 19.5578L6.54765 19.5661C5.72197 19.5661 5.05543 18.8863 5.05543 18.051L5.05042 17.9304V6.50617L5.05543 5.8904C5.08868 5.08225 5.70195 4.42929 6.50653 4.42929H7.89147C9.14912 4.42929 10.1661 5.52172 10.1661 6.80833C10.1661 7.44734 9.91579 8.02414 9.511 8.44574L5.97694 12.0302L9.29072 15.4059C9.71625 15.8471 9.97372 16.4261 9.97372 17.0586C9.97372 18.4386 8.74754 19.5578 7.22957 19.5578V19.5578ZM17.4173 19.5475L11.2385 19.5457C11.2385 19.5457 11.953 18.0002 11.953 17.0451C11.953 15.8804 11.5636 14.838 10.9539 14.15L8.84159 11.9952L10.9957 9.76882C11.6404 9.16306 12.066 8.09136 12.066 6.87234C12.066 5.90649 11.7992 5.05078 11.3672 4.42929H12.8652C14.1218 4.42929 15.1398 5.52172 15.1398 6.80833C15.1398 7.44734 14.8906 8.02414 14.4869 8.44574L11.0182 11.9937L18.2201 19.3383C17.9905 19.482 17.7037 19.5475 17.4173 19.5475V19.5475ZM18.9245 17.2535L13.7627 11.9927L16.2208 9.49526C16.7218 8.86769 17.0408 7.92544 17.0408 6.87234C17.0408 5.90077 16.769 5.02253 16.3352 4.40139L17.4341 4.43572C18.2584 4.43572 18.9288 5.11336 18.9288 5.95119L18.9245 17.2535Z" fill="#00529C"/>
</svg>
